<svg width="32" height="32" viewBox="0 0 32 32" fill="none" xmlns="http://www.w3.org/2000/svg">
  <!-- Rounded square background -->
  <rect width="32" height="32" rx="8" fill="#2563EB"/>
  
  <!-- White shield outline - centered -->
  <path d="M22 11c0 5-3.5 7.5-7.66 8.95a1 1 0 0 1-.67-.01C9.5 18.5 6 16 6 11V4a1 1 0 0 1 1-1c2 0 4.5-1.2 6.24-2.72a1.17 1.17 0 0 1 1.52 0C16.51 1.81 19 3 21 3a1 1 0 0 1 1 1z" stroke="white" stroke-width="2" fill="none"/>
  
  <!-- White checkmark inside shield - centered -->
  <path d="m11 10 2 2 4-4" stroke="white" stroke-width="2" stroke-linecap="round" stroke-linejoin="round"/>
</svg>