<svg width="112" height="112" viewBox="0 0 112 112" fill="none" xmlns="http://www.w3.org/2000/svg">
  <!-- Rounded square background -->
  <rect width="112" height="112" rx="28" fill="#2563EB"/>
  
  <!-- White shield outline - centered -->
  <path d="M77 38.5c0 17.5-12.25 26.25-26.81 31.33a3.5 3.5 0 0 1-2.35-.04C35.25 64.75 21 56 21 38.5V14a3.5 3.5 0 0 1 3.5-3.5c7 0 15.75-4.2 21.84-9.52a4.08 4.08 0 0 1 5.32 0C57.79 6.34 66.5 10.5 73.5 10.5a3.5 3.5 0 0 1 3.5 3.5z" stroke="white" stroke-width="7" fill="none"/>
  
  <!-- White checkmark inside shield - centered -->
  <path d="m38.5 35 7 7 14-14" stroke="white" stroke-width="7" stroke-linecap="round" stroke-linejoin="round"/>
</svg>